# xmcd CD database file
#
# Track frame offsets:
#	150
#	15580
#	31175
#	50112
#	67005
#	86190
#	102225
#	118245
#	137270
#	155287
#	170230
#	187195
#
# Disc length: 2731 seconds
#
# Revision: 1
# Processed by: cddbd v1.5.1PL2 Copyright (c) Steve Scherf et al.
# Submitted via: CDex 1.51
#
DISCID=a80aa90c
DTITLE=Apaporn Nakornsawan - Hit jung dung jing CD1
DYEAR=1900
DGENRE=Blues
TTITLE0=Apaporn Nakornsawan Hit jung dung jing CD1
TTITLE1=Apaporn Nakornsawan Hit jung dung jing CD1
TTITLE2=Apaporn Nakornsawan Hit jung dung jing CD1
TTITLE3=Apaporn Nakornsawan Hit jung dung jing CD1
TTITLE4=Apaporn Nakornsawan Hit jung dung jing CD1
TTITLE5=Apaporn Nakornsawan Hit jung dung jing CD1
TTITLE6=Apaporn Nakornsawan Hit jung dung jing CD1
TTITLE7=Apaporn Nakornsawan Hit jung dung jing CD1
TTITLE8=Apaporn Nakornsawan Hit jung dung jing CD1
TTITLE9=Apaporn Nakornsawan Hit jung dung jing CD1
TTITLE10=Apaporn Nakornsawan Hit jung dung jing CD1
TTITLE11=Apaporn Nakornsawan Hit jung dung jing CD1
EXTD=
EXTT0=
EXTT1=
EXTT2=
EXTT3=
EXTT4=
EXTT5=
EXTT6=
EXTT7=
EXTT8=
EXTT9=
EXTT10=
EXTT11=
PLAYORDER=
